<mxfile host="app.diagrams.net" agent="Mozilla/5.0 (Windows NT 10.0; Win64; x64) AppleWebKit/537.36 (KHTML, like Gecko) Chrome/128.0.0.0 Safari/537.36 Edg/128.0.0.0" version="24.7.12">
  <diagram id="C5RBs43oDa-KdzZeNtuy" name="Page-1">
    <mxGraphModel dx="1426" dy="783" grid="1" gridSize="10" guides="1" tooltips="1" connect="1" arrows="1" fold="1" page="1" pageScale="1" pageWidth="827" pageHeight="1169" math="0" shadow="0">
      <root>
        <mxCell id="WIyWlLk6GJQsqaUBKTNV-0" />
        <mxCell id="WIyWlLk6GJQsqaUBKTNV-1" parent="WIyWlLk6GJQsqaUBKTNV-0" />
        <mxCell id="WIyWlLk6GJQsqaUBKTNV-2" value="" style="rounded=0;html=1;jettySize=auto;orthogonalLoop=1;fontSize=11;endArrow=block;endFill=0;endSize=8;strokeWidth=1;shadow=0;labelBackgroundColor=none;edgeStyle=orthogonalEdgeStyle;" parent="WIyWlLk6GJQsqaUBKTNV-1" source="WIyWlLk6GJQsqaUBKTNV-3" edge="1">
          <mxGeometry relative="1" as="geometry">
            <mxPoint x="220" y="170" as="targetPoint" />
          </mxGeometry>
        </mxCell>
        <mxCell id="gRBqUAe576k16qtASm3R-2" value="" style="edgeStyle=orthogonalEdgeStyle;rounded=0;orthogonalLoop=1;jettySize=auto;html=1;entryX=-0.05;entryY=0.588;entryDx=0;entryDy=0;entryPerimeter=0;" edge="1" parent="WIyWlLk6GJQsqaUBKTNV-1" source="WIyWlLk6GJQsqaUBKTNV-3" target="gRBqUAe576k16qtASm3R-0">
          <mxGeometry relative="1" as="geometry">
            <mxPoint x="380" y="100" as="targetPoint" />
          </mxGeometry>
        </mxCell>
        <mxCell id="gRBqUAe576k16qtASm3R-4" style="edgeStyle=orthogonalEdgeStyle;rounded=0;orthogonalLoop=1;jettySize=auto;html=1;entryX=0.5;entryY=0;entryDx=0;entryDy=0;" edge="1" parent="WIyWlLk6GJQsqaUBKTNV-1" source="WIyWlLk6GJQsqaUBKTNV-3" target="gRBqUAe576k16qtASm3R-3">
          <mxGeometry relative="1" as="geometry" />
        </mxCell>
        <mxCell id="WIyWlLk6GJQsqaUBKTNV-3" value="getUsers.pl" style="rounded=1;whiteSpace=wrap;html=1;fontSize=12;glass=0;strokeWidth=1;shadow=0;" parent="WIyWlLk6GJQsqaUBKTNV-1" vertex="1">
          <mxGeometry x="160" y="80" width="120" height="40" as="geometry" />
        </mxCell>
        <mxCell id="gRBqUAe576k16qtASm3R-0" value="Azure&amp;nbsp;&lt;div&gt;Users&lt;/div&gt;" style="shape=cylinder3;whiteSpace=wrap;html=1;boundedLbl=1;backgroundOutline=1;size=15;" vertex="1" parent="WIyWlLk6GJQsqaUBKTNV-1">
          <mxGeometry x="363" y="42" width="90" height="100" as="geometry" />
        </mxCell>
        <mxCell id="gRBqUAe576k16qtASm3R-5" style="edgeStyle=orthogonalEdgeStyle;rounded=0;orthogonalLoop=1;jettySize=auto;html=1;" edge="1" parent="WIyWlLk6GJQsqaUBKTNV-1" source="gRBqUAe576k16qtASm3R-3" target="gRBqUAe576k16qtASm3R-6">
          <mxGeometry relative="1" as="geometry">
            <mxPoint x="390" y="220" as="targetPoint" />
          </mxGeometry>
        </mxCell>
        <mxCell id="gRBqUAe576k16qtASm3R-8" value="" style="edgeStyle=orthogonalEdgeStyle;rounded=0;orthogonalLoop=1;jettySize=auto;html=1;" edge="1" parent="WIyWlLk6GJQsqaUBKTNV-1" source="gRBqUAe576k16qtASm3R-3" target="gRBqUAe576k16qtASm3R-7">
          <mxGeometry relative="1" as="geometry" />
        </mxCell>
        <mxCell id="gRBqUAe576k16qtASm3R-3" value="getMagister.pl" style="rounded=1;whiteSpace=wrap;html=1;" vertex="1" parent="WIyWlLk6GJQsqaUBKTNV-1">
          <mxGeometry x="160" y="190" width="120" height="60" as="geometry" />
        </mxCell>
        <mxCell id="gRBqUAe576k16qtASm3R-6" value="docRooster&lt;div&gt;llnRooster&lt;/div&gt;" style="shape=cylinder3;whiteSpace=wrap;html=1;boundedLbl=1;backgroundOutline=1;size=15;" vertex="1" parent="WIyWlLk6GJQsqaUBKTNV-1">
          <mxGeometry x="362" y="170" width="90" height="100" as="geometry" />
        </mxCell>
        <mxCell id="gRBqUAe576k16qtASm3R-10" value="" style="edgeStyle=orthogonalEdgeStyle;rounded=0;orthogonalLoop=1;jettySize=auto;html=1;" edge="1" parent="WIyWlLk6GJQsqaUBKTNV-1" source="gRBqUAe576k16qtASm3R-7" target="gRBqUAe576k16qtASm3R-9">
          <mxGeometry relative="1" as="geometry" />
        </mxCell>
        <mxCell id="gRBqUAe576k16qtASm3R-12" value="" style="edgeStyle=orthogonalEdgeStyle;rounded=0;orthogonalLoop=1;jettySize=auto;html=1;" edge="1" parent="WIyWlLk6GJQsqaUBKTNV-1" source="gRBqUAe576k16qtASm3R-7" target="gRBqUAe576k16qtASm3R-11">
          <mxGeometry relative="1" as="geometry" />
        </mxCell>
        <mxCell id="gRBqUAe576k16qtASm3R-7" value="getAzureTeams.pl" style="rounded=1;whiteSpace=wrap;html=1;" vertex="1" parent="WIyWlLk6GJQsqaUBKTNV-1">
          <mxGeometry x="160" y="330" width="120" height="60" as="geometry" />
        </mxCell>
        <mxCell id="gRBqUAe576k16qtASm3R-9" value="Team&lt;div&gt;Team owners&lt;/div&gt;&lt;div&gt;Team Members&lt;/div&gt;" style="shape=cylinder3;whiteSpace=wrap;html=1;boundedLbl=1;backgroundOutline=1;size=15;" vertex="1" parent="WIyWlLk6GJQsqaUBKTNV-1">
          <mxGeometry x="362" y="310" width="90" height="100" as="geometry" />
        </mxCell>
        <mxCell id="gRBqUAe576k16qtASm3R-14" value="" style="edgeStyle=orthogonalEdgeStyle;rounded=0;orthogonalLoop=1;jettySize=auto;html=1;" edge="1" parent="WIyWlLk6GJQsqaUBKTNV-1" source="gRBqUAe576k16qtASm3R-11" target="gRBqUAe576k16qtASm3R-13">
          <mxGeometry relative="1" as="geometry" />
        </mxCell>
        <mxCell id="gRBqUAe576k16qtASm3R-24" value="" style="edgeStyle=orthogonalEdgeStyle;rounded=0;orthogonalLoop=1;jettySize=auto;html=1;" edge="1" parent="WIyWlLk6GJQsqaUBKTNV-1" source="gRBqUAe576k16qtASm3R-11" target="gRBqUAe576k16qtASm3R-16">
          <mxGeometry relative="1" as="geometry" />
        </mxCell>
        <mxCell id="gRBqUAe576k16qtASm3R-11" value="vergelijk.pl" style="rounded=1;whiteSpace=wrap;html=1;" vertex="1" parent="WIyWlLk6GJQsqaUBKTNV-1">
          <mxGeometry x="160" y="470" width="120" height="60" as="geometry" />
        </mxCell>
        <mxCell id="gRBqUAe576k16qtASm3R-13" value="ToDo" style="shape=cylinder3;whiteSpace=wrap;html=1;boundedLbl=1;backgroundOutline=1;size=15;" vertex="1" parent="WIyWlLk6GJQsqaUBKTNV-1">
          <mxGeometry x="362" y="450" width="90" height="100" as="geometry" />
        </mxCell>
        <mxCell id="gRBqUAe576k16qtASm3R-18" value="" style="edgeStyle=orthogonalEdgeStyle;rounded=0;orthogonalLoop=1;jettySize=auto;html=1;" edge="1" parent="WIyWlLk6GJQsqaUBKTNV-1" source="gRBqUAe576k16qtASm3R-16" target="gRBqUAe576k16qtASm3R-17">
          <mxGeometry relative="1" as="geometry" />
        </mxCell>
        <mxCell id="gRBqUAe576k16qtASm3R-23" style="edgeStyle=orthogonalEdgeStyle;rounded=0;orthogonalLoop=1;jettySize=auto;html=1;entryX=0;entryY=0.5;entryDx=0;entryDy=0;" edge="1" parent="WIyWlLk6GJQsqaUBKTNV-1" source="gRBqUAe576k16qtASm3R-16" target="gRBqUAe576k16qtASm3R-22">
          <mxGeometry relative="1" as="geometry" />
        </mxCell>
        <mxCell id="gRBqUAe576k16qtASm3R-16" value="Team created?" style="rhombus;whiteSpace=wrap;html=1;" vertex="1" parent="WIyWlLk6GJQsqaUBKTNV-1">
          <mxGeometry x="180" y="570" width="80" height="80" as="geometry" />
        </mxCell>
        <mxCell id="gRBqUAe576k16qtASm3R-17" value="" style="whiteSpace=wrap;html=1;" vertex="1" parent="WIyWlLk6GJQsqaUBKTNV-1">
          <mxGeometry x="160" y="740" width="120" height="60" as="geometry" />
        </mxCell>
        <mxCell id="gRBqUAe576k16qtASm3R-19" value="Ja" style="text;strokeColor=none;align=center;fillColor=none;html=1;verticalAlign=middle;whiteSpace=wrap;rounded=0;" vertex="1" parent="WIyWlLk6GJQsqaUBKTNV-1">
          <mxGeometry x="220" y="670" width="60" height="30" as="geometry" />
        </mxCell>
        <mxCell id="gRBqUAe576k16qtASm3R-20" value="Nee" style="text;strokeColor=none;align=center;fillColor=none;html=1;verticalAlign=middle;whiteSpace=wrap;rounded=0;" vertex="1" parent="WIyWlLk6GJQsqaUBKTNV-1">
          <mxGeometry x="270" y="620" width="60" height="30" as="geometry" />
        </mxCell>
        <mxCell id="gRBqUAe576k16qtASm3R-22" value="End Run" style="rounded=0;whiteSpace=wrap;html=1;" vertex="1" parent="WIyWlLk6GJQsqaUBKTNV-1">
          <mxGeometry x="348" y="580" width="120" height="60" as="geometry" />
        </mxCell>
      </root>
    </mxGraphModel>
  </diagram>
</mxfile>
